<?xml version="1.0" encoding="UTF-8"?>
<svg width="300" height="300" viewBox="0 0 300 300" xmlns="http://www.w3.org/2000/svg">
  <defs>
    <radialGradient id="starGlow" cx="50%" cy="50%" r="50%" fx="50%" fy="50%">
      <stop offset="0%" stop-color="#fff" stop-opacity="1" />
      <stop offset="100%" stop-color="#fff" stop-opacity="0" />
    </radialGradient>
  </defs>
  
  <!-- Small stars -->
  <circle cx="25" cy="30" r="0.8" fill="#fff" />
  <circle cx="48" cy="42" r="0.6" fill="#fff" />
  <circle cx="71" cy="12" r="0.7" fill="#fff" />
  <circle cx="95" cy="35" r="0.5" fill="#fff" />
  <circle cx="127" cy="22" r="0.9" fill="#fff" />
  <circle cx="150" cy="40" r="0.7" fill="#fff" />
  <circle cx="175" cy="15" r="0.6" fill="#fff" />
  <circle cx="195" cy="32" r="0.8" fill="#fff" />
  <circle cx="220" cy="25" r="0.7" fill="#fff" />
  <circle cx="250" cy="42" r="0.5" fill="#fff" />
  <circle cx="275" cy="18" r="0.8" fill="#fff" />
  
  <circle cx="20" cy="75" r="0.7" fill="#fff" />
  <circle cx="45" cy="85" r="0.5" fill="#fff" />
  <circle cx="75" cy="65" r="0.8" fill="#fff" />
  <circle cx="100" cy="90" r="0.6" fill="#fff" />
  <circle cx="125" cy="75" r="0.7" fill="#fff" />
  <circle cx="155" cy="95" r="0.9" fill="#fff" />
  <circle cx="180" cy="70" r="0.6" fill="#fff" />
  <circle cx="200" cy="88" r="0.5" fill="#fff" />
  <circle cx="225" cy="75" r="0.7" fill="#fff" />
  <circle cx="255" cy="92" r="0.8" fill="#fff" />
  <circle cx="280" cy="70" r="0.6" fill="#fff" />
  
  <circle cx="15" cy="125" r="0.6" fill="#fff" />
  <circle cx="40" cy="140" r="0.8" fill="#fff" />
  <circle cx="65" cy="120" r="0.5" fill="#fff" />
  <circle cx="95" cy="145" r="0.7" fill="#fff" />
  <circle cx="120" cy="130" r="0.6" fill="#fff" />
  <circle cx="150" cy="148" r="0.8" fill="#fff" />
  <circle cx="175" cy="125" r="0.5" fill="#fff" />
  <circle cx="195" cy="142" r="0.7" fill="#fff" />
  <circle cx="220" cy="128" r="0.9" fill="#fff" />
  <circle cx="245" cy="145" r="0.6" fill="#fff" />
  <circle cx="270" cy="125" r="0.7" fill="#fff" />
  
  <circle cx="25" cy="180" r="0.7" fill="#fff" />
  <circle cx="55" cy="195" r="0.6" fill="#fff" />
  <circle cx="80" cy="175" r="0.8" fill="#fff" />
  <circle cx="105" cy="198" r="0.5" fill="#fff" />
  <circle cx="130" cy="180" r="0.7" fill="#fff" />
  <circle cx="160" cy="195" r="0.6" fill="#fff" />
  <circle cx="185" cy="175" r="0.9" fill="#fff" />
  <circle cx="210" cy="192" r="0.7" fill="#fff" />
  <circle cx="235" cy="180" r="0.6" fill="#fff" />
  <circle cx="260" cy="198" r="0.8" fill="#fff" />
  <circle cx="285" cy="175" r="0.5" fill="#fff" />
  
  <circle cx="20" cy="230" r="0.5" fill="#fff" />
  <circle cx="45" cy="245" r="0.7" fill="#fff" />
  <circle cx="70" cy="225" r="0.6" fill="#fff" />
  <circle cx="95" cy="242" r="0.8" fill="#fff" />
  <circle cx="120" cy="230" r="0.7" fill="#fff" />
  <circle cx="145" cy="248" r="0.5" fill="#fff" />
  <circle cx="170" cy="225" r="0.8" fill="#fff" />
  <circle cx="195" cy="240" r="0.7" fill="#fff" />
  <circle cx="220" cy="228" r="0.6" fill="#fff" />
  <circle cx="245" cy="245" r="0.9" fill="#fff" />
  <circle cx="270" cy="230" r="0.7" fill="#fff" />
  
  <circle cx="30" cy="280" r="0.8" fill="#fff" />
  <circle cx="55" cy="270" r="0.6" fill="#fff" />
  <circle cx="80" cy="285" r="0.7" fill="#fff" />
  <circle cx="105" cy="272" r="0.5" fill="#fff" />
  <circle cx="130" cy="288" r="0.8" fill="#fff" />
  <circle cx="155" cy="270" r="0.6" fill="#fff" />
  <circle cx="180" cy="285" r="0.9" fill="#fff" />
  <circle cx="205" cy="275" r="0.7" fill="#fff" />
  <circle cx="230" cy="290" r="0.6" fill="#fff" />
  <circle cx="255" cy="272" r="0.8" fill="#fff" />
  <circle cx="280" cy="285" r="0.5" fill="#fff" />
  
  <!-- Medium stars with glow -->
  <circle cx="42" cy="27" r="1.2" fill="#fff" />
  <circle cx="42" cy="27" r="2.5" fill="url(#starGlow)" opacity="0.7" />
  
  <circle cx="112" cy="48" r="1.3" fill="#fff" />
  <circle cx="112" cy="48" r="2.8" fill="url(#starGlow)" opacity="0.6" />
  
  <circle cx="192" cy="60" r="1.4" fill="#fff" />
  <circle cx="192" cy="60" r="3" fill="url(#starGlow)" opacity="0.8" />
  
  <circle cx="262" cy="38" r="1.2" fill="#fff" />
  <circle cx="262" cy="38" r="2.6" fill="url(#starGlow)" opacity="0.7" />
  
  <circle cx="62" cy="98" r="1.3" fill="#fff" />
  <circle cx="62" cy="98" r="2.7" fill="url(#starGlow)" opacity="0.6" />
  
  <circle cx="142" cy="115" r="1.1" fill="#fff" />
  <circle cx="142" cy="115" r="2.4" fill="url(#starGlow)" opacity="0.7" />
  
  <circle cx="232" cy="105" r="1.4" fill="#fff" />
  <circle cx="232" cy="105" r="3" fill="url(#starGlow)" opacity="0.8" />
  
  <circle cx="52" cy="162" r="1.2" fill="#fff" />
  <circle cx="52" cy="162" r="2.5" fill="url(#starGlow)" opacity="0.7" />
  
  <circle cx="132" cy="158" r="1.3" fill="#fff" />
  <circle cx="132" cy="158" r="2.8" fill="url(#starGlow)" opacity="0.6" />
  
  <circle cx="202" cy="165" r="1.1" fill="#fff" />
  <circle cx="202" cy="165" r="2.3" fill="url(#starGlow)" opacity="0.7" />
  
  <circle cx="272" cy="152" r="1.4" fill="#fff" />
  <circle cx="272" cy="152" r="3" fill="url(#starGlow)" opacity="0.8" />
  
  <circle cx="72" cy="212" r="1.3" fill="#fff" />
  <circle cx="72" cy="212" r="2.8" fill="url(#starGlow)" opacity="0.7" />
  
  <circle cx="152" cy="205" r="1.2" fill="#fff" />
  <circle cx="152" cy="205" r="2.6" fill="url(#starGlow)" opacity="0.6" />
  
  <circle cx="242" cy="215" r="1.4" fill="#fff" />
  <circle cx="242" cy="215" r="3" fill="url(#starGlow)" opacity="0.8" />
  
  <circle cx="82" cy="255" r="1.1" fill="#fff" />
  <circle cx="82" cy="255" r="2.4" fill="url(#starGlow)" opacity="0.7" />
  
  <circle cx="172" cy="262" r="1.3" fill="#fff" />
  <circle cx="172" cy="262" r="2.7" fill="url(#starGlow)" opacity="0.6" />
  
  <circle cx="252" cy="252" r="1.2" fill="#fff" />
  <circle cx="252" cy="252" r="2.5" fill="url(#starGlow)" opacity="0.7" />
  
  <!-- Larger stars with stronger glow -->
  <circle cx="85" cy="45" r="1.8" fill="#fff" />
  <circle cx="85" cy="45" r="4.5" fill="url(#starGlow)" opacity="0.9" />
  
  <circle cx="215" cy="75" r="2" fill="#fff" />
  <circle cx="215" cy="75" r="5" fill="url(#starGlow)" opacity="0.8" />
  
  <circle cx="45" cy="145" r="1.9" fill="#fff" />
  <circle cx="45" cy="145" r="4.7" fill="url(#starGlow)" opacity="0.9" />
  
  <circle cx="175" cy="115" r="2.1" fill="#fff" />
  <circle cx="175" cy="115" r="5.2" fill="url(#starGlow)" opacity="0.8" />
  
  <circle cx="255" cy="135" r="1.8" fill="#fff" />
  <circle cx="255" cy="135" r="4.5" fill="url(#starGlow)" opacity="0.9" />
  
  <circle cx="135" cy="195" r="2" fill="#fff" />
  <circle cx="135" cy="195" r="5" fill="url(#starGlow)" opacity="0.8" />
  
  <circle cx="225" cy="185" r="1.9" fill="#fff" />
  <circle cx="225" cy="185" r="4.8" fill="url(#starGlow)" opacity="0.9" />
  
  <circle cx="65" cy="235" r="2.1" fill="#fff" />
  <circle cx="65" cy="235" r="5.2" fill="url(#starGlow)" opacity="0.8" />
  
  <circle cx="195" cy="265" r="1.8" fill="#fff" />
  <circle cx="195" cy="265" r="4.5" fill="url(#starGlow)" opacity="0.9" />
</svg>