<?xml version="1.0" encoding="UTF-8"?>
<svg width="500" height="500" viewBox="0 0 500 500" xmlns="http://www.w3.org/2000/svg">
  <defs>
    <radialGradient id="twinkleGlow" cx="50%" cy="50%" r="50%" fx="50%" fy="50%">
      <stop offset="0%" stop-color="#fff" stop-opacity="0.9" />
      <stop offset="100%" stop-color="#fff" stop-opacity="0" />
    </radialGradient>
  </defs>
  
  <!-- Layer 1: Larger twinkling spots -->
  <circle cx="50" cy="60" r="3" fill="url(#twinkleGlow)" opacity="0.8" />
  <circle cx="120" cy="25" r="2.5" fill="url(#twinkleGlow)" opacity="0.7" />
  <circle cx="190" cy="70" r="3.5" fill="url(#twinkleGlow)" opacity="0.9" />
  <circle cx="260" cy="40" r="3" fill="url(#twinkleGlow)" opacity="0.8" />
  <circle cx="330" cy="85" r="2.5" fill="url(#twinkleGlow)" opacity="0.7" />
  <circle cx="400" cy="35" r="3" fill="url(#twinkleGlow)" opacity="0.8" />
  <circle cx="470" cy="75" r="2.5" fill="url(#twinkleGlow)" opacity="0.7" />
  
  <circle cx="30" cy="130" r="3" fill="url(#twinkleGlow)" opacity="0.8" />
  <circle cx="100" cy="150" r="2.5" fill="url(#twinkleGlow)" opacity="0.7" />
  <circle cx="170" cy="120" r="3.5" fill="url(#twinkleGlow)" opacity="0.9" />
  <circle cx="240" cy="160" r="3" fill="url(#twinkleGlow)" opacity="0.8" />
  <circle cx="310" cy="130" r="2.5" fill="url(#twinkleGlow)" opacity="0.7" />
  <circle cx="380" cy="150" r="3" fill="url(#twinkleGlow)" opacity="0.8" />
  <circle cx="450" cy="120" r="2.5" fill="url(#twinkleGlow)" opacity="0.7" />
  
  <circle cx="50" cy="210" r="3" fill="url(#twinkleGlow)" opacity="0.8" />
  <circle cx="120" cy="240" r="2.5" fill="url(#twinkleGlow)" opacity="0.7" />
  <circle cx="190" cy="200" r="3.5" fill="url(#twinkleGlow)" opacity="0.9" />
  <circle cx="260" cy="230" r="3" fill="url(#twinkleGlow)" opacity="0.8" />
  <circle cx="330" cy="210" r="2.5" fill="url(#twinkleGlow)" opacity="0.7" />
  <circle cx="400" cy="240" r="3" fill="url(#twinkleGlow)" opacity="0.8" />
  <circle cx="470" cy="200" r="2.5" fill="url(#twinkleGlow)" opacity="0.7" />
  
  <circle cx="30" cy="290" r="3" fill="url(#twinkleGlow)" opacity="0.8" />
  <circle cx="100" cy="320" r="2.5" fill="url(#twinkleGlow)" opacity="0.7" />
  <circle cx="170" cy="280" r="3.5" fill="url(#twinkleGlow)" opacity="0.9" />
  <circle cx="240" cy="310" r="3" fill="url(#twinkleGlow)" opacity="0.8" />
  <circle cx="310" cy="290" r="2.5" fill="url(#twinkleGlow)" opacity="0.7" />
  <circle cx="380" cy="320" r="3" fill="url(#twinkleGlow)" opacity="0.8" />
  <circle cx="450" cy="280" r="2.5" fill="url(#twinkleGlow)" opacity="0.7" />
  
  <circle cx="50" cy="370" r="3" fill="url(#twinkleGlow)" opacity="0.8" />
  <circle cx="120" cy="400" r="2.5" fill="url(#twinkleGlow)" opacity="0.7" />
  <circle cx="190" cy="360" r="3.5" fill="url(#twinkleGlow)" opacity="0.9" />
  <circle cx="260" cy="390" r="3" fill="url(#twinkleGlow)" opacity="0.8" />
  <circle cx="330" cy="370" r="2.5" fill="url(#twinkleGlow)" opacity="0.7" />
  <circle cx="400" cy="400" r="3" fill="url(#twinkleGlow)" opacity="0.8" />
  <circle cx="470" cy="360" r="2.5" fill="url(#twinkleGlow)" opacity="0.7" />
  
  <circle cx="30" cy="450" r="3" fill="url(#twinkleGlow)" opacity="0.8" />
  <circle cx="100" cy="480" r="2.5" fill="url(#twinkleGlow)" opacity="0.7" />
  <circle cx="170" cy="440" r="3.5" fill="url(#twinkleGlow)" opacity="0.9" />
  <circle cx="240" cy="470" r="3" fill="url(#twinkleGlow)" opacity="0.8" />
  <circle cx="310" cy="450" r="2.5" fill="url(#twinkleGlow)" opacity="0.7" />
  <circle cx="380" cy="480" r="3" fill="url(#twinkleGlow)" opacity="0.8" />
  <circle cx="450" cy="440" r="2.5" fill="url(#twinkleGlow)" opacity="0.7" />
  
  <!-- Layer 2: Subtle nebula-like wisps -->
  <path d="M20,40 C60,35 100,50 140,30 C180,10 220,40 260,30 C300,20 340,40 380,25 C420,10 460,35 500,20" 
        stroke="rgba(255,255,255,0.15)" stroke-width="5" fill="none" />
  
  <path d="M0,120 C40,100 80,130 120,110 C160,90 200,120 240,100 C280,80 320,110 360,90 C400,70 440,100 480,80" 
        stroke="rgba(255,255,255,0.1)" stroke-width="4" fill="none" />
  
  <path d="M10,180 C50,200 90,170 130,190 C170,210 210,180 250,200 C290,220 330,190 370,210 C410,230 450,200 490,220" 
        stroke="rgba(255,255,255,0.12)" stroke-width="6" fill="none" />
  
  <path d="M30,260 C70,240 110,270 150,250 C190,230 230,260 270,240 C310,220 350,250 390,230 C430,210 470,240 510,220" 
        stroke="rgba(255,255,255,0.08)" stroke-width="3" fill="none" />
  
  <path d="M20,330 C60,350 100,320 140,340 C180,360 220,330 260,350 C300,370 340,340 380,360 C420,380 460,350 500,370" 
        stroke="rgba(255,255,255,0.14)" stroke-width="5" fill="none" />
  
  <path d="M0,410 C40,390 80,420 120,400 C160,380 200,410 240,390 C280,370 320,400 360,380 C400,360 440,390 480,370" 
        stroke="rgba(255,255,255,0.09)" stroke-width="4" fill="none" />
  
  <!-- Layer 3: Colored subtle accent nebula patches -->
  <ellipse cx="150" cy="100" rx="80" ry="40" fill="rgba(147, 112, 219, 0.05)" />
  <ellipse cx="350" cy="180" rx="100" ry="50" fill="rgba(138, 43, 226, 0.04)" />
  <ellipse cx="100" cy="350" rx="70" ry="45" fill="rgba(123, 104, 238, 0.03)" />
  <ellipse cx="400" cy="280" rx="90" ry="40" fill="rgba(148, 0, 211, 0.05)" />
  <ellipse cx="250" cy="450" rx="120" ry="60" fill="rgba(186, 85, 211, 0.04)" />
</svg>